<?xml version="1.0" encoding="UTF-8"?>
<svg width="26px" height="32px" viewBox="0 0 26 32" version="1.1" xmlns="http://www.w3.org/2000/svg" xmlns:xlink="http://www.w3.org/1999/xlink">
    <!-- Generator: Sketch 52.6 (67491) - http://www.bohemiancoding.com/sketch -->
    <title>icon</title>
    <desc>Created with Sketch.</desc>
    <g id="页面-1" stroke="none" stroke-width="1" fill="none" fill-rule="evenodd">
        <g id="画板-copy-6" transform="translate(-1437.000000, -460.000000)" fill="#377DFF" fill-rule="nonzero">
            <g id="分组-2" transform="translate(608.000000, 326.000000)">
                <g id="分组-copy" transform="translate(660.000000, 0.000000)">
                    <g id="icon" transform="translate(169.000000, 134.000000)">
                        <path d="M12.9983075,0 L17.3310767,0 C20.7160526,3.40556088 22.6116391,5.31799297 26,8.72696282 L26,30.5443699 C26,31.3488868 25.3534696,32 24.5546153,32 L1.44538472,32 C0.6465304,32 0,31.3488868 0,30.5443699 L0,1.45563013 C0,0.651113242 0.6465304,0 1.44538472,0 L10.1109231,0 L12.9983075,0 Z M17.3333333,8.72727273 L23.1111111,8.72727273 L17.3333333,2.90909091 L17.3333333,8.72727273 Z M4,15 C3.44771525,15 3,15.4477153 3,16 L3,27 C3,27.5522847 3.44771525,28 4,28 L22,28 C22.5522847,28 23,27.5522847 23,27 L23,16 C23,15.4477153 22.5522847,15 22,15 L4,15 Z M4.17131459,24.6565289 C5.75698197,21.790934 7.01357439,20.2387577 7.94109186,20 C9.13800703,19.691895 9.66963589,24.011371 11.0534817,24.011371 C12.6762498,24.011371 14.9806664,18.6933734 17.1663377,18.6933734 C19.352009,18.6933734 20.2489992,22.0291647 21.1301565,23.64676 C22.0113138,25.2643553 22.437618,27 22.116793,27 C16.1721001,27 10.2274072,27 4.2827142,27 C3.84834454,27 3.49621835,26.6478738 3.49621835,26.2135041 C3.49621835,26.0942139 3.52335358,25.9764866 3.57557038,25.8692319 L4.08685864,24.819055 C4.11358802,24.7641521 4.14174965,24.7099582 4.17131459,24.6565289 Z M6.5,19 C5.67157288,19 5,18.3284271 5,17.5 C5,16.6715729 5.67157288,16 6.5,16 C7.32842712,16 8,16.6715729 8,17.5 C8,18.3284271 7.32842712,19 6.5,19 Z" id="合并形状"></path>
                    </g>
                </g>
            </g>
        </g>
    </g>
</svg>