<?xml version="1.0" encoding="UTF-8"?>
<svg width="26px" height="32px" viewBox="0 0 26 32" version="1.1" xmlns="http://www.w3.org/2000/svg" xmlns:xlink="http://www.w3.org/1999/xlink">
    <!-- Generator: Sketch 52.6 (67491) - http://www.bohemiancoding.com/sketch -->
    <title>wenjian_yasuobao</title>
    <desc>Created with Sketch.</desc>
    <g id="页面-1" stroke="none" stroke-width="1" fill="none" fill-rule="evenodd">
        <g id="画板-copy-5" transform="translate(-1458.000000, -460.000000)" fill="#377DFF" fill-rule="nonzero">
            <g id="分组-2" transform="translate(608.000000, 326.000000)">
                <g id="分组-copy" transform="translate(660.000000, 0.000000)">
                    <g id="wenjian_yasuobao" transform="translate(190.000000, 134.000000)">
                        <path d="M17.3310767,0 L12.9983075,0 L12.9983075,2.90785128 L15.885692,2.90785128 L15.885692,5.81570257 L12.9983075,5.81570257 L12.9983075,8.72355385 L15.885692,8.72355385 L15.885692,11.6348141 L12.9983075,11.6348141 L12.9983075,14.5426654 L15.885692,14.5426654 L15.885692,17.4505167 L12.9983075,17.4505167 L12.9983075,14.5426654 L10.1109231,14.5426654 L10.1109231,11.6348141 L12.9983075,11.6348141 L12.9983075,8.72696282 L10.1109231,8.72696282 L10.1109231,5.81911154 L12.9983075,5.81911154 L12.9983075,2.90785128 L10.1109231,2.90785128 L10.1109231,0 L1.44538472,0 C0.6465304,0 0,0.651113242 0,1.45563013 L0,30.5443699 C0,31.3488868 0.6465304,32 1.44538472,32 L24.5546153,32 C25.3534696,32 26,31.3488868 26,30.5443699 L26,8.72696282 C22.6116391,5.31799297 20.7160526,3.40556088 17.3310767,0 Z M16.3669856,29.0909091 L10.5925926,29.0909091 L10.5925926,18.4242424 L16.3703704,18.4242424 L16.3703704,29.0909091 L16.3669856,29.0909091 Z M17.3333333,8.72727273 L17.3333333,2.90909091 L23.1111111,8.72727273 L17.3333333,8.72727273 Z" id="形状"></path>
                    </g>
                </g>
            </g>
        </g>
    </g>
</svg>